<svg xmlns="http://www.w3.org/2000/svg" xmlns:xlink="http://www.w3.org/1999/xlink" viewBox="0 0 500 500">
  <defs>
    <style>
      .cls-1 {
        isolation: isolate;
      }

      .cls-2 {
        mix-blend-mode: multiply;
        opacity: 0.25;
      }

      .cls-3 {
        fill: url(#linear-gradient);
      }

      .cls-4 {
        fill: #ccc;
      }

      .cls-5 {
        fill: #f2f2f2;
      }

      .cls-6 {
        fill: #87556f;
      }

      .cls-7 {
        fill: #fff;
      }
    </style>
    <linearGradient id="linear-gradient" x1="96.65" y1="434.47" x2="277.81" y2="216.54" gradientUnits="userSpaceOnUse">
      <stop offset="0" stop-color="#4e4861"/>
      <stop offset="0.39" stop-color="#56425d"/>
      <stop offset="1" stop-color="#59405c"/>
    </linearGradient>
  </defs>
  <g class="cls-1">
    <g id="Layer_2" data-name="Layer 2">
      <g>
        <circle class="cls-3" cx="250" cy="250" r="172.57"/>
      </g>
      <g>
        <polygon class="cls-4" points="143.71 344.11 228.45 133.89 261.11 133.89 174.01 344.11 143.71 344.11"/>
        <polygon class="cls-5" points="356.29 344.11 271.55 133.89 238.89 133.89 325.99 344.11 356.29 344.11"/>
      </g>
      <g>
        <path class="cls-6" d="M251.1,242.42c-31.76,0-65.25,9-83,14.52v1.74c16.16-5.1,49.24-14,83-14,29.93,0,60.69-6.08,79.23-10.54v-1.79C313,236.58,283.44,242.42,251.1,242.42Z"/>
        <path class="cls-7" d="M150.54,259.7l-18.26,6,.42,1.3-.81.26.18.57L121,271.44s-1,.56-.62,1l-4,1.31s-1,1-.9,1.26l.15.47,0,.09.15.46c.09.27,1.48.49,1.48.49l4-1.31c0,.54,1.08.41,1.08.41l11.1-3.63.18.56.82-.27.42,1.3,18.27-6a24.6,24.6,0,0,0,8.33-4.88l1.5-.49,8.34-2.35-.11-.34-.29-.9-1-3.08-.11-.34-8.12,3-1.5.49A24.67,24.67,0,0,0,150.54,259.7Z"/>
        <path class="cls-7" d="M349.46,231l18.26-6-.42-1.29.81-.27-.18-.57L379,219.3s1-.56.62-1l4-1.31s1-1,.9-1.26l-.15-.46,0-.1-.15-.46c-.09-.26-1.48-.48-1.48-.48l-4,1.31c.05-.55-1.08-.42-1.08-.42l-11.1,3.64-.18-.57-.82.27-.42-1.3-18.27,6a24.6,24.6,0,0,0-8.33,4.88l-1.5.49-8.34,2.35.11.34.29.9,1,3.08.11.35,8.12-3,1.5-.49A24.67,24.67,0,0,0,349.46,231Z"/>
      </g>
    </g>
  </g>
</svg>
