<svg width="22" height="22" viewBox="0 0 22 22" fill="none" xmlns="http://www.w3.org/2000/svg">
<circle cx="11" cy="11" r="11" fill="#322F3D"/>
<path d="M7.8 13.144C7.496 13.144 7.24 13.04 7.032 12.832C6.832 12.616 6.732 12.352 6.732 12.04C6.732 11.72 6.832 11.456 7.032 11.248C7.24 11.032 7.496 10.924 7.8 10.924C8.104 10.924 8.356 11.032 8.556 11.248C8.764 11.456 8.868 11.72 8.868 12.04C8.868 12.352 8.764 12.616 8.556 12.832C8.356 13.04 8.104 13.144 7.8 13.144ZM11.3977 13.144C11.0937 13.144 10.8377 13.04 10.6297 12.832C10.4297 12.616 10.3297 12.352 10.3297 12.04C10.3297 11.72 10.4297 11.456 10.6297 11.248C10.8377 11.032 11.0937 10.924 11.3977 10.924C11.7017 10.924 11.9537 11.032 12.1537 11.248C12.3617 11.456 12.4657 11.72 12.4657 12.04C12.4657 12.352 12.3617 12.616 12.1537 12.832C11.9537 13.04 11.7017 13.144 11.3977 13.144ZM14.9953 13.144C14.6913 13.144 14.4353 13.04 14.2273 12.832C14.0273 12.616 13.9273 12.352 13.9273 12.04C13.9273 11.72 14.0273 11.456 14.2273 11.248C14.4353 11.032 14.6913 10.924 14.9953 10.924C15.2993 10.924 15.5513 11.032 15.7513 11.248C15.9593 11.456 16.0633 11.72 16.0633 12.04C16.0633 12.352 15.9593 12.616 15.7513 12.832C15.5513 13.04 15.2993 13.144 14.9953 13.144Z" fill="white"/>
</svg>
